<?xml version="1.0" encoding="UTF-8" standalone="no"?> <!-- Created with Vectornator for iOS (http://vectornator.io/) --><!DOCTYPE svg PUBLIC "-//W3C//DTD SVG 1.1//EN" "http://www.w3.org/Graphics/SVG/1.1/DTD/svg11.dtd">
<svg height="100%" style="fill-rule:nonzero;clip-rule:evenodd;stroke-linecap:round;stroke-linejoin:round;" version="1.1" viewBox="0 0 1237 115.02" width="100%" xml:space="preserve" xmlns="http://www.w3.org/2000/svg" xmlns:vectornator="http://vectornator.io" xmlns:xlink="http://www.w3.org/1999/xlink">
<metadata>
<vectornator:setting key="IsTimeLapseWatermarkDisabled" value="false"/>
<vectornator:setting key="UndoHistoryDisabled" value="true"/>
<vectornator:setting key="VNDimensionsVisible" value="true"/>
<vectornator:setting key="VNSnapToGuides" value="true"/>
<vectornator:setting key="WDCMYKEnabledKey" value="false"/>
<vectornator:setting key="WDDisplayWhiteBackground" value="true"/>
<vectornator:setting key="WDDynamicGuides" value="true"/>
<vectornator:setting key="WDGuidesVisible" value="true"/>
<vectornator:setting key="WDIsolateActiveLayer" value="false"/>
<vectornator:setting key="WDOutlineMode" value="false"/>
<vectornator:setting key="WDRulersVisible" value="true"/>
<vectornator:setting key="WDSnapToEdges" value="false"/>
<vectornator:setting key="WDSnapToGrid" value="false"/>
<vectornator:setting key="WDSnapToPoints" value="false"/>
<vectornator:setting key="WDUnits" value="Pixels"/>
</metadata>
<defs/>
<g id="Layer 2" vectornator:layerName="Layer 2">
<path d="M0 0L1237 0L1237 115.02L0 115.02L0 0Z" fill="#ffffff" opacity="1"/>
<path d="M2000 46.5268C2000 35.4811 2008.95 26.5268 2020 26.5268C2031.05 26.5268 2040 35.4811 2040 46.5268C2040 57.5725 2031.05 66.5268 2020 66.5268C2008.95 66.5268 2000 57.5725 2000 46.5268Z" fill="#ffffff" opacity="1" stroke="#ffffff" stroke-linecap="round" stroke-linejoin="round" stroke-width="20"/>
<path d="M-347.11 133.812C-347.11 132.431-345.766 131.312-344.11 131.312C-342.453 131.312-341.11 132.431-341.11 133.812C-341.11 135.193-342.453 136.312-344.11 136.312C-345.766 136.312-347.11 135.193-347.11 133.812Z" fill="#ffffff" opacity="1" stroke="#ffffff" stroke-linecap="round" stroke-linejoin="round" stroke-width="20"/>
<g opacity="1">
<path d="M130.556-0.0047814C130.556 20.7059 146.226 37.4952 165.556 37.4952C184.886 37.4952 200.556 20.7059 200.556-0.0047814C200.556-20.7155 184.886-37.5048 165.556-37.5048C146.226-37.5048 130.556-20.7155 130.556-0.0047814Z" fill="#0e0a48" opacity="1"/>
<path d="M490.556-0.0047814C490.556 20.7059 506.226 37.4952 525.556 37.4952C544.886 37.4952 560.556 20.7059 560.556-0.0047814C560.556-20.7155 544.886-37.5048 525.556-37.5048C506.226-37.5048 490.556-20.7155 490.556-0.0047814Z" fill="#0e0a48" opacity="1"/>
<path d="M850.556-0.0047814C850.556 20.7059 866.226 37.4952 885.556 37.4952C904.886 37.4952 920.556 20.7059 920.556-0.0047814C920.556-20.7155 904.886-37.5048 885.556-37.5048C866.226-37.5048 850.556-20.7155 850.556-0.0047814Z" fill="#0e0a48" opacity="1"/>
<path d="M310.556-0.0047814C310.556 20.7059 326.226 37.4952 345.556 37.4952C364.886 37.4952 380.556 20.7059 380.556-0.0047814C380.556-20.7155 364.886-37.5048 345.556-37.5048C326.226-37.5048 310.556-20.7155 310.556-0.0047814Z" fill="#0e0a48" opacity="1"/>
<path d="M670.556-0.0047814C670.556 20.7059 686.226 37.4952 705.556 37.4952C724.886 37.4952 740.556 20.7059 740.556-0.0047814C740.556-20.7155 724.886-37.5048 705.556-37.5048C686.226-37.5048 670.556-20.7155 670.556-0.0047814Z" fill="#0e0a48" opacity="1"/>
<path d="M1030.56-0.0047814C1030.56 20.7059 1046.23 37.4952 1065.56 37.4952C1084.89 37.4952 1100.56 20.7059 1100.56-0.0047814C1100.56-20.7155 1084.89-37.5048 1065.56-37.5048C1046.23-37.5048 1030.56-20.7155 1030.56-0.0047814Z" fill="#0e0a48" opacity="1"/>
<path d="M220.556-0.0047814C220.556 20.7059 236.226 37.4952 255.556 37.4952C274.886 37.4952 290.556 20.7059 290.556-0.0047814C290.556-20.7155 274.886-37.5048 255.556-37.5048C236.226-37.5048 220.556-20.7155 220.556-0.0047814Z" fill="#0e0a48" opacity="1"/>
<path d="M580.556-0.0047814C580.556 20.7059 596.226 37.4952 615.556 37.4952C634.886 37.4952 650.556 20.7059 650.556-0.0047814C650.556-20.7155 634.886-37.5048 615.556-37.5048C596.226-37.5048 580.556-20.7155 580.556-0.0047814Z" fill="#0e0a48" opacity="1"/>
<path d="M940.556-0.0047814C940.556 20.7059 956.226 37.4952 975.556 37.4952C994.886 37.4952 1010.56 20.7059 1010.56-0.0047814C1010.56-20.7155 994.886-37.5048 975.556-37.5048C956.226-37.5048 940.556-20.7155 940.556-0.0047814Z" fill="#0e0a48" opacity="1"/>
<path d="M400.556-0.0047814C400.556 20.7059 416.226 37.4952 435.556 37.4952C454.886 37.4952 470.556 20.7059 470.556-0.0047814C470.556-20.7155 454.886-37.5048 435.556-37.5048C416.226-37.5048 400.556-20.7155 400.556-0.0047814Z" fill="#0e0a48" opacity="1"/>
<path d="M760.556-0.0047814C760.556 20.7059 776.226 37.4952 795.556 37.4952C814.886 37.4952 830.556 20.7059 830.556-0.0047814C830.556-20.7155 814.886-37.5048 795.556-37.5048C776.226-37.5048 760.556-20.7155 760.556-0.0047814Z" fill="#0e0a48" opacity="1"/>
</g>
<path d="M-102.893-0.00473701C-102.893 57.9852-58.1216 104.995-2.89314 104.995C52.3353 104.995 97.1069 57.9852 97.1069-0.00473701C97.1069-57.9947 52.3353-105.005-2.89314-105.005C-58.1216-105.005-102.893-57.9947-102.893-0.00473701Z" fill="#0e0a48" opacity="1"/>
<path d="M1137-0.00473701C1137 57.9852 1181.77 104.995 1237 104.995C1292.23 104.995 1337 57.9852 1337-0.00473701C1337-57.9947 1292.23-105.005 1237-105.005C1181.77-105.005 1137-57.9947 1137-0.00473701Z" fill="#0e0a48" opacity="1"/>
</g>
</svg>
