<?xml version="1.0" encoding="UTF-8" standalone="no"?> <!-- Created with Vectornator for iOS (http://vectornator.io/) --><!DOCTYPE svg PUBLIC "-//W3C//DTD SVG 1.1//EN" "http://www.w3.org/Graphics/SVG/1.1/DTD/svg11.dtd">
<svg height="100%" style="fill-rule:nonzero;clip-rule:evenodd;stroke-linecap:round;stroke-linejoin:round;" version="1.1" viewBox="0 0 1237 200" width="100%" xml:space="preserve" xmlns="http://www.w3.org/2000/svg" xmlns:vectornator="http://vectornator.io" xmlns:xlink="http://www.w3.org/1999/xlink">
<metadata>
<vectornator:setting key="IsTimeLapseWatermarkDisabled" value="false"/>
<vectornator:setting key="UndoHistoryDisabled" value="true"/>
<vectornator:setting key="VNDimensionsVisible" value="true"/>
<vectornator:setting key="VNSnapToGuides" value="true"/>
<vectornator:setting key="WDCMYKEnabledKey" value="false"/>
<vectornator:setting key="WDDisplayWhiteBackground" value="true"/>
<vectornator:setting key="WDDynamicGuides" value="true"/>
<vectornator:setting key="WDGuidesVisible" value="true"/>
<vectornator:setting key="WDIsolateActiveLayer" value="false"/>
<vectornator:setting key="WDOutlineMode" value="false"/>
<vectornator:setting key="WDRulersVisible" value="true"/>
<vectornator:setting key="WDSnapToEdges" value="false"/>
<vectornator:setting key="WDSnapToGrid" value="false"/>
<vectornator:setting key="WDSnapToPoints" value="false"/>
<vectornator:setting key="WDUnits" value="Pixels"/>
</metadata>
<defs/>
<g id="Layer 2" vectornator:layerName="Layer 2">
<path d="M0 0L1237 0L1237 200L0 200L0 0Z" fill="#ffffff" opacity="1"/>
<path d="M2000 46.5268C2000 35.4811 2008.95 26.5268 2020 26.5268C2031.05 26.5268 2040 35.4811 2040 46.5268C2040 57.5725 2031.05 66.5268 2020 66.5268C2008.95 66.5268 2000 57.5725 2000 46.5268Z" fill="#ffffff" opacity="1" stroke="#ffffff" stroke-linecap="round" stroke-linejoin="round" stroke-width="20"/>
<path d="M-347.11 133.812C-347.11 132.431-345.766 131.312-344.11 131.312C-342.453 131.312-341.11 132.431-341.11 133.812C-341.11 135.193-342.453 136.312-344.11 136.312C-345.766 136.312-347.11 135.193-347.11 133.812Z" fill="#ffffff" opacity="1" stroke="#ffffff" stroke-linecap="round" stroke-linejoin="round" stroke-width="20"/>
<path d="M-100 100C-100 155.229-55.2285 200 0 200C55.2285 200 100 155.229 100 100C100 44.7715 55.2285 0 0 0C-55.2285 2.16716e-13-100 44.7715-100 100Z" fill="#0e0a48" opacity="1"/>
<path d="M1137 100C1137 155.229 1181.77 200 1237 200C1292.23 200 1337 155.229 1337 100C1337 44.7715 1292.23 0 1237 0C1181.77 2.20268e-13 1137 44.7715 1137 100Z" fill="#0e0a48" opacity="1"/>
</g>
</svg>
